<svg width="134" height="22" viewBox="0 0 134 22" fill="none" xmlns="http://www.w3.org/2000/svg">
<path d="M17.0185 12.0324L12.3793 19.9779L7.74004 12.0324H17.0185ZM18.2614 11.3223H6.49219L12.3793 21.3833L18.2614 11.3223Z" fill="white"/>
<path d="M25.0841 2.14975L29.7234 10.0953H20.4449L25.0841 2.14975ZM25.0841 0.729492L19.197 10.7905H30.9712L25.0841 0.729492Z" fill="white"/>
<path d="M0.851562 0.729492L5.78769 9.62848L11.1817 0.952948L0.851562 0.729492Z" fill="#4CAF4F"/>
<path d="M12.3793 1.50903L17.557 10.3584H7.19165L12.3793 1.50903Z" fill="#4CAF4F"/>
<path d="M18.8902 12.2905L24.0728 21.3832H13.4609L18.7291 12.2905H18.8902Z" fill="#4CAF4F"/>
<path d="M20.0122 11.7393L25.0842 20.6929L30.2266 11.7393H20.0122Z" fill="#4CAF4F"/>
<path d="M52.5135 2.16602V19.6903H49.3132L41.6891 8.6606H41.5608V19.6903H37.8557V2.16602H41.1073L48.6715 13.1871H48.8255V2.16602H52.5135Z" fill="white"/>
<path d="M61.4959 19.947C60.144 19.947 58.9802 19.6732 58.0048 19.1255C57.035 18.5722 56.2877 17.7907 55.7629 16.781C55.2381 15.7656 54.9757 14.5648 54.9757 13.1786C54.9757 11.8266 55.2381 10.6401 55.7629 9.61896C56.2877 8.59785 57.0264 7.80207 57.9791 7.23162C58.9375 6.66117 60.0612 6.37595 61.3505 6.37595C62.2175 6.37595 63.0247 6.51571 63.772 6.79523C64.525 7.06904 65.181 7.48262 65.7401 8.03596C66.3048 8.5893 66.7441 9.28525 67.0578 10.1238C67.3716 10.9567 67.5284 11.9321 67.5284 13.0502V14.0514H56.4303V11.7924H64.0972C64.0972 11.2676 63.9831 10.8026 63.7549 10.3976C63.5267 9.99261 63.2101 9.67601 62.8051 9.44783C62.4058 9.21394 61.9409 9.097 61.4104 9.097C60.857 9.097 60.3664 9.22535 59.9386 9.48205C59.5165 9.73305 59.1856 10.0725 58.946 10.5003C58.7064 10.9224 58.5838 11.3931 58.5781 11.9122V14.0599C58.5781 14.7102 58.6979 15.2721 58.9375 15.7456C59.1827 16.2191 59.5279 16.5842 59.9728 16.8409C60.4178 17.0976 60.9454 17.2259 61.5558 17.2259C61.9608 17.2259 62.3316 17.1689 62.6682 17.0548C63.0048 16.9407 63.2928 16.7696 63.5324 16.5414C63.772 16.3132 63.9546 16.0337 64.0801 15.7028L67.4514 15.9253C67.2803 16.7353 66.9295 17.4427 66.399 18.0474C65.8741 18.6464 65.1953 19.1141 64.3624 19.4507C63.5353 19.7816 62.5798 19.947 61.4959 19.947Z" fill="white"/>
<path d="M72.7181 6.54708L75.1311 11.1421L77.604 6.54708H81.3434L77.5356 13.1187L81.446 19.6903H77.7238L75.1311 15.1466L72.5812 19.6903H68.8162L72.7181 13.1187L68.9532 6.54708H72.7181Z" fill="white"/>
<path d="M88.976 19.947C87.6297 19.947 86.4717 19.6618 85.5019 19.0913C84.5379 18.5151 83.7963 17.7165 83.2772 16.6954C82.7638 15.6743 82.5071 14.4992 82.5071 13.17C82.5071 11.8238 82.7666 10.6429 83.2857 9.62752C83.8106 8.60641 84.555 7.81063 85.5191 7.24018C86.4831 6.66402 87.6297 6.37595 88.9589 6.37595C90.1055 6.37595 91.1095 6.58416 91.9709 7.00059C92.8322 7.41702 93.5139 8.00173 94.0159 8.75473C94.5179 9.50772 94.7946 10.3919 94.8459 11.4073H91.4061C91.3091 10.7513 91.0524 10.2236 90.636 9.82432C90.2253 9.4193 89.6862 9.21679 89.0188 9.21679C88.454 9.21679 87.9606 9.37081 87.5385 9.67886C87.122 9.9812 86.7969 10.4233 86.563 11.0052C86.3291 11.587 86.2122 12.2915 86.2122 13.1187C86.2122 13.9572 86.3262 14.6703 86.5544 15.2579C86.7883 15.8454 87.1163 16.2932 87.5385 16.6013C87.9606 16.9093 88.454 17.0634 89.0188 17.0634C89.4352 17.0634 89.8089 16.9778 90.1397 16.8066C90.4763 16.6355 90.7529 16.3874 90.9697 16.0622C91.1922 15.7313 91.3377 15.3349 91.4061 14.8728H94.8459C94.7889 15.8768 94.5151 16.761 94.0245 17.5254C93.5396 18.2841 92.8693 18.8774 92.0136 19.3052C91.158 19.7331 90.1454 19.947 88.976 19.947Z" fill="white"/>
<path d="M103.17 19.947C101.818 19.947 100.654 19.6732 99.6784 19.1255C98.7086 18.5722 97.9613 17.7907 97.4365 16.781C96.9117 15.7656 96.6493 14.5648 96.6493 13.1786C96.6493 11.8266 96.9117 10.6401 97.4365 9.61896C97.9613 8.59785 98.7 7.80207 99.6527 7.23162C100.611 6.66117 101.735 6.37595 103.024 6.37595C103.891 6.37595 104.698 6.51571 105.446 6.79523C106.199 7.06904 106.855 7.48262 107.414 8.03596C107.978 8.5893 108.418 9.28525 108.731 10.1238C109.045 10.9567 109.202 11.9321 109.202 13.0502V14.0514H98.1039V11.7924H105.771C105.771 11.2676 105.657 10.8026 105.429 10.3976C105.2 9.99261 104.884 9.67601 104.479 9.44783C104.079 9.21394 103.614 9.097 103.084 9.097C102.531 9.097 102.04 9.22535 101.612 9.48205C101.19 9.73305 100.859 10.0725 100.62 10.5003C100.38 10.9224 100.257 11.3931 100.252 11.9122V14.0599C100.252 14.7102 100.371 15.2721 100.611 15.7456C100.856 16.2191 101.201 16.5842 101.646 16.8409C102.091 17.0976 102.619 17.2259 103.229 17.2259C103.634 17.2259 104.005 17.1689 104.342 17.0548C104.678 16.9407 104.966 16.7696 105.206 16.5414C105.446 16.3132 105.628 16.0337 105.754 15.7028L109.125 15.9253C108.954 16.7353 108.603 17.4427 108.073 18.0474C107.548 18.6464 106.869 19.1141 106.036 19.4507C105.209 19.7816 104.253 19.947 103.17 19.947Z" fill="white"/>
<path d="M115.226 12.0919V19.6903H111.581V6.54708H115.055V8.86597H115.209C115.5 8.10156 115.988 7.49688 116.672 7.05193C117.357 6.60127 118.187 6.37595 119.162 6.37595C120.075 6.37595 120.871 6.5756 121.549 6.97492C122.228 7.37424 122.756 7.94469 123.132 8.68627C123.509 9.42216 123.697 10.3007 123.697 11.3218V19.6903H120.052V11.9721C120.058 11.1677 119.852 10.5402 119.436 10.0896C119.02 9.63322 118.446 9.40504 117.716 9.40504C117.225 9.40504 116.792 9.51058 116.415 9.72164C116.045 9.93271 115.754 10.2408 115.543 10.6458C115.337 11.0451 115.232 11.5271 115.226 12.0919Z" fill="white"/>
<path d="M133.561 6.54708V9.28525H125.646V6.54708H133.561ZM127.443 3.39819H131.088V15.6515C131.088 15.9881 131.139 16.2505 131.242 16.4387C131.345 16.6213 131.487 16.7496 131.67 16.8238C131.858 16.8979 132.075 16.935 132.32 16.935C132.491 16.935 132.663 16.9207 132.834 16.8922C133.005 16.858 133.136 16.8323 133.227 16.8152L133.801 19.5277C133.618 19.5847 133.361 19.6503 133.031 19.7245C132.7 19.8044 132.297 19.8529 131.824 19.87C130.946 19.9042 130.175 19.7873 129.514 19.5191C128.858 19.251 128.347 18.8346 127.982 18.2699C127.617 17.7051 127.437 16.992 127.443 16.1307V3.39819Z" fill="white"/>
</svg>
