<svg width="35" height="35" viewBox="0 0 35 35" fill="none" xmlns="http://www.w3.org/2000/svg">
<rect x="0.992676" y="0.919342" width="33.4113" height="33.4113" rx="5.56856" fill="#F5F7FA"/>
<g clip-path="url(#clip0_211_2521)">
<path d="M31.6173 10.2546C31.6173 10.2782 31.6173 10.3076 31.6112 10.3252C31.5805 10.5547 31.5805 10.7842 31.5989 11.0196C31.6112 11.0784 31.6234 11.1373 31.6725 11.1843C31.7522 11.2726 31.8748 11.2549 31.9238 11.149C31.9484 11.0961 31.9484 11.0431 31.9361 10.9902C31.8748 10.7666 31.8625 10.5312 31.8564 10.3017C31.8564 10.2899 31.8564 10.2723 31.8564 10.2546C31.9238 10.2488 31.9852 10.2429 32.0403 10.2429C32.0833 10.237 32.12 10.2311 32.1507 10.2134C32.2426 10.1664 32.2426 10.0663 32.1445 10.0193C32.1078 10.0016 32.0587 9.99573 32.0158 9.99573C31.8625 10.0016 31.7093 10.0016 31.556 10.0016C31.5008 10.0016 31.4456 10.0075 31.3904 10.0134C31.3598 10.0193 31.323 10.0193 31.2985 10.0369C31.2556 10.0546 31.2311 10.084 31.2311 10.1252C31.2372 10.1664 31.2556 10.1899 31.2985 10.2076C31.323 10.2252 31.3537 10.2311 31.3843 10.2311C31.4579 10.237 31.5376 10.2488 31.6173 10.2546ZM33.3033 10.5253C33.3033 10.5312 33.3094 10.5371 33.3094 10.5371C33.3339 10.6959 33.3585 10.8489 33.3768 11.0019C33.383 11.0549 33.3891 11.102 33.4259 11.1431C33.5056 11.2432 33.6282 11.2314 33.6834 11.1255C33.7079 11.0725 33.714 11.0196 33.7018 10.9607C33.665 10.7842 33.6466 10.6077 33.6098 10.437C33.5853 10.3311 33.5547 10.2311 33.524 10.137C33.5056 10.0781 33.4627 10.0369 33.3891 10.031C33.3156 10.0193 33.2604 10.0546 33.2297 10.1075C33.1929 10.1546 33.1623 10.2017 33.1377 10.2546C33.0948 10.3488 33.058 10.4429 33.009 10.5312C33.0028 10.5547 32.9967 10.5724 32.9845 10.59C32.9784 10.5783 32.9722 10.5724 32.9722 10.5724C32.8925 10.4253 32.8189 10.2782 32.7393 10.137C32.727 10.1252 32.7208 10.1134 32.7147 10.1016C32.6779 10.0487 32.635 10.0193 32.5676 10.0193C32.5063 10.0251 32.4572 10.0605 32.4266 10.1134C32.4143 10.137 32.4143 10.1546 32.4082 10.1781C32.3836 10.3664 32.353 10.5547 32.3285 10.743C32.3162 10.8489 32.3101 10.9549 32.3101 11.0608C32.304 11.0843 32.3101 11.1137 32.3223 11.1373C32.3346 11.1843 32.3714 11.2138 32.4204 11.2196C32.4817 11.2255 32.5246 11.2079 32.5431 11.1608C32.5614 11.1255 32.5676 11.0961 32.5737 11.0667C32.5982 10.9607 32.6166 10.8607 32.635 10.7607C32.6473 10.7018 32.6534 10.6548 32.6718 10.59C32.6841 10.6136 32.6963 10.6312 32.7086 10.6489C32.7637 10.7195 32.8189 10.7901 32.8864 10.8489C32.9538 10.896 33.009 10.8901 33.0642 10.8372C33.0765 10.8254 33.0826 10.8195 33.0948 10.8077C33.15 10.7254 33.2175 10.643 33.2726 10.5606C33.2849 10.5488 33.291 10.5371 33.3033 10.5253Z" fill="#3A3B7B"/>
<path d="M19.1771 10.3702C19.1345 10.4821 19.1264 10.5626 19.146 10.6296C19.1678 10.7207 19.2242 10.7505 19.3007 10.7273C20.0208 10.5564 21.5999 11.0415 22.1845 11.1767C22.3224 11.2051 22.4346 11.0343 22.3405 10.8811C22.2032 10.7328 20.6248 10.0978 20.0226 10.0632C19.7865 10.0503 19.3645 9.99225 19.1771 10.3702Z" fill="#3A3B7B"/>
<path d="M25.3484 8.31458C25.4252 8.35709 25.4681 8.39765 25.4892 8.44296C25.5208 8.5024 25.5041 8.54352 25.4511 8.56451C24.9751 8.78748 24.3417 9.74742 24.086 10.0785C24.0241 10.1547 23.8811 10.1104 23.8595 9.98515C23.8639 9.84354 24.4254 8.80179 24.7388 8.51805C24.8619 8.40727 25.0654 8.18991 25.3484 8.31458Z" fill="#3A3B7B"/>
<path d="M21.5576 7.84207C21.6498 7.77537 21.7456 7.752 21.7946 7.79534C22.5128 8.38484 22.8936 9.31837 23.1294 10.173C23.1383 10.1929 23.1389 10.2215 23.1318 10.2513C23.1288 10.2768 23.1094 10.3037 23.0786 10.3245C23.0457 10.3475 23.0174 10.3545 23.0041 10.3347C22.6893 9.92376 20.8915 8.32498 21.5576 7.84207Z" fill="#3A3B7B"/>
<path d="M6.3491 18.0625C6.52123 17.9395 6.70836 17.8371 6.90638 17.7577C7.11356 17.7008 7.33439 17.7102 7.5355 17.7845C7.73655 17.8589 7.907 17.994 8.02094 18.1695C8.12287 18.3446 8.16274 18.5467 8.13461 18.7454C8.10647 18.9441 8.01183 19.1287 7.86489 19.2713C7.751 19.3869 7.62168 19.4876 7.48039 19.5709C6.85067 19.9613 6.21534 20.3304 5.58004 20.7208C5.45005 20.8185 5.31214 20.9062 5.16765 20.9829C4.94786 21.0881 4.69668 21.1163 4.45754 21.0626C4.2184 21.0089 4.00634 20.8766 3.85803 20.6888C3.74716 20.5557 3.65359 20.4102 3.57938 20.2555C2.97752 19.0413 2.35336 17.8325 1.77378 16.597C1.50628 16.0621 1.28894 15.447 1.07717 14.8533C0.985553 14.6808 0.967661 14.4808 1.02731 14.2958C1.08696 14.1109 1.21944 13.9555 1.39657 13.8629C1.5737 13.7702 1.78151 13.7475 1.9758 13.7996C2.17009 13.8517 2.33554 13.9746 2.43695 14.1419C2.74865 14.5395 3.02458 14.9618 3.26173 15.4042C3.8636 16.474 4.43761 17.5437 5.01718 18.5813C5.05093 18.6387 5.08814 18.694 5.12864 18.7471C5.56487 18.5711 5.97516 18.3409 6.3491 18.0625Z" fill="#3A3B7B"/>
<path d="M12.572 17.6893C11.1955 19.2351 8.88834 18.8446 7.72919 16.8549C6.9044 15.4429 6.75951 13.1108 8.55399 11.6399C8.93718 11.332 9.39538 11.1222 9.88588 11.0302C10.4873 10.9474 11.1005 11.0493 11.638 11.3211C12.1755 11.593 12.6097 12.021 12.8785 12.5439C13.8593 14.2555 13.72 16.4377 12.572 17.6893ZM12.0147 14.0843C11.8685 13.6637 11.5751 13.3046 11.1843 13.068C10.9632 12.9168 10.6946 12.8432 10.4236 12.8598C10.1526 12.8763 9.89579 12.982 9.69641 13.159C8.89951 13.8383 8.73229 15.4482 9.31187 16.4056C9.38575 16.5618 9.49423 16.7005 9.62981 16.8122C9.76539 16.9238 9.92476 17.0057 10.0968 17.0521C10.2687 17.0984 10.4492 17.1082 10.6255 17.0806C10.8019 17.053 10.9697 16.9887 11.1175 16.8924C11.5495 16.5709 11.8664 16.1283 12.0242 15.626C12.182 15.1237 12.1729 14.5867 11.998 14.0897L12.0147 14.0843Z" fill="#3A3B7B"/>
<path d="M18.1895 14.7583C18.0485 14.7873 17.903 14.7891 17.7613 14.7633C17.6197 14.7376 17.4848 14.685 17.3647 14.6085C17.2596 14.5508 17.1691 14.4715 17.0998 14.3762C17.0304 14.2809 16.984 14.1721 16.9638 14.0575C16.9435 13.9429 16.95 13.8255 16.9826 13.7136C17.0153 13.6017 17.0735 13.4981 17.1529 13.4104C17.2913 13.234 17.4877 13.1078 17.7102 13.052C18.2913 12.8902 18.8895 12.7915 19.4935 12.7579C19.6263 12.743 19.7607 12.7538 19.889 12.7896C20.0173 12.8254 20.1369 12.8853 20.2407 12.9661C20.3445 13.0468 20.4305 13.1466 20.4936 13.2596C20.5567 13.3727 20.5956 13.4967 20.6081 13.6244C20.7822 14.2515 20.8013 14.9091 20.6638 15.5445C20.1623 17.5984 18.4347 18.3044 16.4953 17.6466C15.9509 17.4707 15.4736 17.1429 15.1244 16.7052C14.6586 16.1781 14.3284 15.5534 14.1603 14.8813C14.0241 14.2828 14.039 13.6618 14.2038 13.0701C14.3686 12.4783 14.6785 11.9329 15.1077 11.4795C15.5149 10.9867 16.0435 10.5989 16.6458 10.3509C17.0264 10.1496 17.4717 10.0924 17.8941 10.1905C17.9899 10.2159 18.0769 10.2655 18.146 10.3341C18.2152 10.4027 18.2639 10.4878 18.2872 10.5806C18.3105 10.6733 18.3076 10.7704 18.2786 10.8617C18.2496 10.953 18.1958 11.0352 18.1226 11.0998C17.9834 11.2207 17.8322 11.3282 17.6712 11.4207C17.1757 11.7235 16.7446 12.1137 16.4006 12.5706C16.1751 12.8663 16.0198 13.2059 15.9457 13.5653C15.8715 13.9248 15.8803 14.2954 15.9715 14.6513C16.0979 15.1365 16.3783 15.572 16.774 15.8975C18 16.9673 19.5938 15.935 19.3152 14.4748C18.9084 14.5711 18.5517 14.6727 18.1895 14.7583Z" fill="#3A3B7B"/>
<path d="M25.6794 17.7749C23.8683 18.8447 21.8063 17.7749 21.3549 15.5285C21.0261 13.9239 21.6503 11.6774 23.8349 10.8216C24.2996 10.6435 24.8038 10.5809 25.3005 10.6398C25.8973 10.7446 26.4447 11.0266 26.8656 11.4459C27.2865 11.8653 27.5598 12.4008 27.6467 12.9772C28.0145 14.8866 27.1785 16.9245 25.6794 17.7749ZM26.3092 14.1752C26.3086 13.7309 26.1449 13.301 25.8467 12.9611C25.6872 12.7509 25.4568 12.6003 25.1946 12.5349C24.9324 12.4696 24.6547 12.4935 24.4088 12.6028C23.428 13.0092 22.737 14.4855 22.9878 15.5713C23.0069 15.7417 23.0646 15.906 23.1568 16.0528C23.249 16.1995 23.3735 16.3252 23.5216 16.421C23.6697 16.5167 23.8378 16.5803 24.0141 16.6072C24.1905 16.6341 24.3709 16.6238 24.5426 16.5768C25.061 16.403 25.5099 16.0781 25.8266 15.6476C26.1433 15.217 26.3121 14.7023 26.3092 14.1752Z" fill="#3A3B7B"/>
<path d="M29.4783 18.2242C29.451 18.42 29.3438 18.5973 29.1802 18.7172C29.0166 18.837 28.8101 18.8896 28.6062 18.8634C28.4022 18.8372 28.2175 18.7342 28.0926 18.5772C27.9677 18.4203 27.9129 18.2221 27.9402 18.0263C27.9676 17.8306 28.0748 17.6532 28.2384 17.5334C28.4019 17.4135 28.6084 17.3609 28.8124 17.3872C29.0163 17.4134 29.2011 17.5163 29.326 17.6733C29.4509 17.8303 29.5057 18.0285 29.4783 18.2242ZM28.9935 11.0088C29.0995 10.8535 29.255 10.7351 29.4368 10.6715C29.6185 10.6079 29.8169 10.6024 30.0022 10.6558C30.1906 10.701 30.357 10.807 30.4737 10.956C30.5904 11.105 30.6501 11.2879 30.6431 11.4742C30.6185 11.7729 30.5719 12.0696 30.5038 12.362C30.3198 13.3516 30.1415 14.341 29.9465 15.3199C29.8573 15.7103 29.7403 16.0847 29.6121 16.4805C29.5675 16.6043 29.493 16.7161 29.3948 16.8068C29.3337 16.8751 29.2557 16.9274 29.1679 16.959C29.0801 16.9907 28.9855 17.0005 28.8927 16.9877C28.7999 16.9749 28.712 16.9399 28.6371 16.8859C28.5621 16.8318 28.5027 16.7604 28.4641 16.6784C28.3978 16.5314 28.3618 16.3733 28.3582 16.2131C28.3582 15.5499 28.3582 14.8813 28.4028 14.2127C28.4785 13.2585 28.6275 12.311 28.8486 11.3779C28.8746 11.2529 28.9237 11.1333 28.9935 11.0249V11.0088Z" fill="#3A3B7B"/>
<path fill-rule="evenodd" clip-rule="evenodd" d="M3.99459 22.5223C3.92879 22.6633 3.91074 22.8205 3.9429 22.9717C3.96429 23.1711 4.01127 23.3673 4.08278 23.5556C4.17205 23.7863 4.27195 24.0144 4.39513 24.2955C4.42346 24.3602 4.45306 24.4278 4.48403 24.4988C4.65014 24.8797 4.85857 25.3664 5.13658 26.0709C5.21527 26.271 5.28514 26.4728 5.35551 26.6759C5.38393 26.758 5.41246 26.8403 5.44166 26.9229C5.54633 27.2163 5.72643 27.4799 5.96516 27.6888C6.06653 27.8037 6.20099 27.8874 6.35176 27.9292C6.50548 27.9719 6.66896 27.9692 6.82104 27.9214C6.97312 27.8737 7.10669 27.7831 7.20442 27.6615C7.30023 27.5423 7.3572 27.3986 7.36827 27.2485C7.43043 26.956 7.40921 26.6528 7.30677 26.3709C7.14417 25.9028 6.95896 25.4341 6.74537 24.9756L6.74439 24.9736C6.39303 24.2562 6.03587 23.5438 5.66182 22.8312L5.65902 22.8262C5.54952 22.6405 5.40721 22.4745 5.23849 22.3357C5.12896 22.2118 4.97788 22.1282 4.81103 22.0994C4.64062 22.07 4.46488 22.0996 4.31516 22.1831C4.17353 22.2607 4.06126 22.3795 3.99459 22.5223Z" fill="#3A3B7B"/>
<path fill-rule="evenodd" clip-rule="evenodd" d="M9.36111 20.756C8.81018 20.619 8.23481 20.5991 7.6751 20.6975C7.24158 20.7385 6.8152 20.8345 6.51913 21.0246C6.36855 21.1213 6.2468 21.2456 6.17908 21.4035C6.11098 21.5623 6.10229 21.7438 6.15809 21.9462C6.25998 22.3168 6.39229 22.6771 6.52413 23.0362L6.54549 23.0944L6.546 23.0957C6.94298 24.1391 7.34374 25.179 7.74815 26.2154C7.79531 26.3787 7.862 26.5362 7.94687 26.6848L7.94846 26.6876C8.06058 26.8722 8.20439 27.0373 8.37381 27.176C8.45854 27.2522 8.56332 27.305 8.67694 27.3286C8.79167 27.3523 8.91099 27.3455 9.0219 27.3086C9.13285 27.2717 9.23109 27.2064 9.30596 27.1196C9.37961 27.0342 9.42784 26.9313 9.44556 26.8219C9.51865 26.5245 9.49524 26.2127 9.3784 25.9285C9.34194 25.8328 9.31334 25.7351 9.2832 25.6322C9.27315 25.5979 9.26296 25.5629 9.25221 25.5274C10.1779 25.1801 11.1629 24.7131 11.5092 23.6267C11.6449 23.2513 11.6562 22.8448 11.5416 22.4629C11.4269 22.0806 11.1916 21.7418 10.8681 21.493C10.4278 21.1448 9.91343 20.8932 9.36111 20.756ZM7.834 22.0885C7.85223 22.0834 7.8706 22.0787 7.88901 22.0744C8.49167 21.9835 9.10826 22.1046 9.62526 22.4155C9.8531 22.5676 9.94643 22.7365 9.96246 22.8991C9.979 23.0665 9.91558 23.2479 9.78818 23.4223C9.54744 23.7517 9.10812 24.0154 8.71129 24.0645C8.42199 23.4251 8.12821 22.7597 7.834 22.0885Z" fill="#3A3B7B"/>
<path d="M13.034 19.5856C13.6901 19.2948 14.5028 19.2445 15.1388 19.449C15.2989 19.4938 15.4379 19.5906 15.5319 19.723C15.6252 19.8545 15.6683 20.013 15.6539 20.1715C15.653 20.2743 15.6267 20.3755 15.5772 20.4668C15.5268 20.5598 15.4539 20.6397 15.3645 20.6999C15.2751 20.76 15.172 20.7987 15.0638 20.8125C14.9556 20.8264 14.8455 20.815 14.7428 20.7793L14.735 20.7766L14.7277 20.7729C14.6751 20.7465 14.6193 20.7267 14.5616 20.7137L14.558 20.713C14.1106 20.5989 13.6886 20.7879 13.5345 21.0201C13.461 21.1308 13.4519 21.2425 13.5131 21.3442C13.5787 21.453 13.7395 21.5752 14.0649 21.6623C14.1544 21.6859 14.2461 21.7086 14.3392 21.7318C14.5965 21.7957 14.8639 21.8621 15.1225 21.9542L15.1235 21.9546C16.3165 22.3902 16.7607 23.2925 16.6087 24.1411C16.4582 24.9804 15.728 25.7441 14.6298 25.9243C14.2302 26.0093 13.8143 25.9927 13.4234 25.8763C13.0315 25.7594 12.6782 25.5462 12.3987 25.2577L12.3914 25.2502C12.3031 25.1415 12.2438 25.0139 12.2175 24.8784C12.1933 24.7561 12.206 24.6298 12.2542 24.5142C12.302 24.3993 12.383 24.2999 12.4874 24.2275C12.5978 24.1454 12.7308 24.0961 12.87 24.0858C13.0088 24.0756 13.1476 24.1045 13.2695 24.169C13.3912 24.2255 13.5043 24.2974 13.606 24.383L13.6079 24.3846C13.7876 24.5424 14.0051 24.5835 14.2136 24.5454C14.4252 24.5068 14.6241 24.3866 14.7521 24.2272C14.8792 24.0688 14.9303 23.8806 14.8697 23.6979C14.8088 23.5139 14.6255 23.3077 14.2229 23.1354C14.1176 23.0925 14.0085 23.0579 13.895 23.0242C13.8644 23.0151 13.8332 23.0061 13.8017 22.9969C13.7178 22.9725 13.6314 22.9473 13.5467 22.9195C13.4884 22.9004 13.4306 22.8824 13.3733 22.8644C13.2166 22.8155 13.064 22.7678 12.917 22.7038C12.5972 22.5992 12.3209 22.3986 12.1292 22.1314C11.9368 21.8632 11.8399 21.5425 11.8531 21.2171C11.8541 20.4243 12.3745 19.878 13.034 19.5856Z" fill="#3A3B7B"/>
<path d="M21.3518 19.5011C21.2246 19.4414 21.0839 19.4131 20.9425 19.4187C20.801 19.4243 20.6633 19.4636 20.5416 19.5331C20.4207 19.6021 20.3195 19.6987 20.2469 19.8143C20.1804 19.9117 20.1344 20.0206 20.1115 20.135C20.0885 20.2493 20.0891 20.3667 20.113 20.4807C20.1367 20.6273 20.163 20.7698 20.1889 20.9103C20.2319 21.1428 20.2737 21.3702 20.3013 21.6019L20.3023 21.6078C20.365 21.9713 20.3979 22.3389 20.4008 22.7073L20.4011 22.7125C20.4226 23.1104 20.2813 23.5005 20.0077 23.8001L20.0034 23.8054C19.9143 23.9149 19.7953 23.9985 19.6595 24.0468C19.5238 24.0951 19.3768 24.1062 19.2348 24.0789C19.0929 24.0515 18.9617 23.9868 18.8559 23.892C18.7501 23.7972 18.6738 23.6756 18.6357 23.5416C18.5543 23.2591 18.5073 22.9686 18.4953 22.6758L18.6342 20.5534C18.6363 20.5257 18.6386 20.4972 18.641 20.4685C18.6463 20.404 18.6517 20.3384 18.6539 20.2771C18.6572 20.187 18.6544 20.0944 18.6325 20.0066C18.6102 19.917 18.5676 19.8317 18.4921 19.7591C18.4173 19.6872 18.3163 19.6342 18.1893 19.5981C17.9596 19.5342 17.7654 19.5363 17.6035 19.6022C17.4416 19.6681 17.3306 19.7905 17.2521 19.9319C17.1742 20.0721 17.1241 20.2381 17.0863 20.4044C17.0582 20.5277 17.0356 20.6572 17.0142 20.7805C17.0067 20.823 16.9995 20.8647 16.9922 20.9052L16.992 20.9064C16.8772 21.5824 16.843 22.2689 16.8901 22.9523C16.8989 23.3217 16.9792 23.6863 17.1268 24.0275C17.2935 24.4677 17.5952 24.8491 17.9923 25.1214C18.3903 25.3942 18.8652 25.5446 19.3541 25.5525C19.8431 25.5605 20.323 25.4256 20.7304 25.1659C21.1371 24.9066 21.4523 24.5349 21.6343 24.1C21.8888 23.546 22.0084 22.9436 21.9837 22.3385C21.9687 21.8968 21.9437 21.4517 21.9188 21.0089C21.9065 20.7917 21.8943 20.5749 21.8834 20.3594C21.8779 20.1434 21.8037 19.9342 21.6707 19.7598C21.5884 19.6495 21.4788 19.5606 21.3518 19.5011Z" fill="#3A3B7B"/>
<path d="M25.8545 22.829C25.8416 22.8448 25.828 22.8611 25.8138 22.878C25.7103 22.3051 25.6144 21.7323 25.5183 21.1587C25.4839 20.9529 25.4493 20.7463 25.4144 20.5402L25.4105 20.5172L25.3978 20.4973C25.3738 20.4599 25.3714 20.4233 25.3714 20.3451V20.3361L25.37 20.3271C25.344 20.1657 25.2679 20.0154 25.1517 19.8961C25.0358 19.777 24.8852 19.6942 24.7197 19.6582C24.5544 19.6191 24.3806 19.6277 24.2204 19.683C24.0605 19.7382 23.9212 19.8374 23.8198 19.9681C23.7355 20.0685 23.6664 20.1798 23.6146 20.2987C23.497 20.5549 23.3785 20.8117 23.2596 21.0692L23.2575 21.0736C22.9607 21.7165 22.6619 22.3637 22.3717 23.016L22.3708 23.0181C22.1927 23.441 22.0457 23.8867 21.8992 24.331C21.8699 24.4197 21.8407 24.5083 21.8112 24.5967C21.7583 24.7369 21.7351 24.8858 21.7431 25.0347C21.7335 25.168 21.7667 25.3009 21.8384 25.4156C21.9115 25.5325 22.021 25.6246 22.1514 25.6788C22.2897 25.7369 22.4442 25.7493 22.5906 25.7139C22.7367 25.6785 22.8665 25.5976 22.9594 25.4838C23.0781 25.3436 23.1803 25.1908 23.2635 25.0288C23.5093 24.5463 23.7442 24.0579 23.978 23.5716C24.0685 23.3835 24.1564 23.215 24.2565 23.0315C24.2633 23.0542 24.2703 23.0762 24.2776 23.0983C24.3824 23.5413 24.5594 23.9656 24.8019 24.3556C24.8478 24.4382 24.9117 24.5104 24.9893 24.5673C25.0678 24.6248 25.1584 24.6652 25.2548 24.6857C25.3513 24.7062 25.4512 24.7063 25.5476 24.686C25.644 24.6657 25.7349 24.6253 25.8134 24.568L25.9689 24.4563L27.1758 23.4806L27.1044 23.9172C27.0065 24.5172 26.9092 25.1122 26.806 25.7074C26.7384 25.9712 26.7385 26.2467 26.8062 26.5104C26.8356 26.6588 26.9104 26.7955 27.021 26.9029C27.1326 27.0112 27.2756 27.0848 27.4313 27.1142C27.587 27.1435 27.7483 27.1272 27.8943 27.0675C28.0382 27.0086 28.1605 26.9101 28.246 26.7847C28.445 26.5477 28.5689 26.2608 28.6029 25.9582C28.6541 25.5308 28.712 25.0976 28.7699 24.6645C28.8366 24.1653 28.9033 23.6663 28.9596 23.1768L28.9598 23.1753C29.014 22.6395 29.0402 22.1015 29.0384 21.5631C29.0503 21.393 29.0062 21.2236 28.9121 21.0787C28.8178 20.9334 28.678 20.8204 28.5129 20.7558C28.3411 20.6808 28.1487 20.6607 27.9642 20.6986C27.7808 20.7363 27.6149 20.829 27.4904 20.9634C27.2678 21.161 27.0589 21.3724 26.8652 21.5964L26.8639 21.5979C26.6524 21.8508 26.4424 22.1087 26.2337 22.3649C26.1068 22.5207 25.9803 22.676 25.8545 22.829Z" fill="#3A3B7B"/>
</g>
<defs>
<clipPath id="clip0_211_2521">
<rect width="32.7153" height="20.186" fill="white" transform="translate(0.992676 7.77338)"/>
</clipPath>
</defs>
</svg>
