<svg width="34" height="35" viewBox="0 0 34 35" fill="none" xmlns="http://www.w3.org/2000/svg">
<rect x="0.0922852" y="0.919342" width="33.4113" height="33.4113" rx="5.56856" fill="#F5F7FA"/>
<g clip-path="url(#clip0_211_2514)">
<path fill-rule="evenodd" clip-rule="evenodd" d="M7.12121 10.6374L0.17041 17.5183C1.5607 18.8947 3.14888 20.0546 4.88046 20.9621C5.35908 22.2189 6.1093 23.3976 7.1311 24.4091C10.9754 28.2147 17.2082 28.2147 21.0525 24.4091C22.0743 23.3976 22.8245 22.2189 23.3032 20.962C25.0347 20.0546 26.6229 18.8947 28.0132 17.5183L21.068 10.643C21.0629 10.6379 21.0577 10.6327 21.0525 10.6276C17.2082 6.82197 10.9754 6.82197 7.1311 10.6276C7.12781 10.6309 7.12451 10.6342 7.12121 10.6374ZM20.3874 22.2035C18.3618 22.8802 16.2355 23.2268 14.0918 23.2268C11.9481 23.2268 9.82183 22.8802 7.79627 22.2035C8.01574 22.4918 8.25804 22.7684 8.52324 23.0309C11.5987 26.0755 16.5849 26.0755 19.6604 23.0309C19.9256 22.7684 20.1679 22.4918 20.3874 22.2035ZM8.66601 11.8679C9.18827 12.2095 9.74359 12.5018 10.3247 12.7401C11.519 13.2298 12.7991 13.4819 14.0918 13.4819C15.3845 13.4819 16.6646 13.2298 17.8589 12.7401C18.44 12.5018 18.9953 12.2095 19.5177 11.8679C16.4806 9.00718 11.703 9.00719 8.66601 11.8679Z" fill="#3B4158"/>
</g>
<defs>
<clipPath id="clip0_211_2514">
<rect width="27.8428" height="19.4899" fill="white" transform="translate(0.17041 7.77338)"/>
</clipPath>
</defs>
</svg>
