<svg width="39" height="35" viewBox="0 0 39 35" fill="none" xmlns="http://www.w3.org/2000/svg">
<rect x="0.0424805" y="0.919342" width="33.4113" height="33.4113" rx="5.56856" fill="#F5F7FA"/>
<g clip-path="url(#clip0_211_2517)">
<path d="M38.3233 14.5041C38.3273 14.4751 38.3273 14.4458 38.3233 14.4167C38.3271 14.3931 38.3271 14.369 38.3233 14.3453L38.0397 12.3039C37.9988 12.0597 37.8894 11.8314 37.7238 11.6447L37.6751 11.5891L37.586 11.5017L32.6762 7.3555L32.814 7.49054C32.7013 7.35837 32.5599 7.25265 32.4 7.18117C32.2402 7.10969 32.066 7.07426 31.8904 7.07751H30.3996C30.1572 7.0728 29.9203 7.14836 29.7271 7.29197C29.5243 7.14922 29.28 7.07405 29.0304 7.07751H27.5396C27.3441 7.0744 27.1512 7.12197 26.9805 7.21542C26.8097 7.30887 26.6672 7.44488 26.5674 7.60968C26.4134 7.84506 26.3555 8.12865 26.4053 8.40397L26.5917 9.69071C26.4682 9.62211 26.3285 9.58651 26.1866 9.58747H18.9677C18.7087 9.58906 18.4557 9.66348 18.2385 9.80192C18.0285 9.93077 17.86 10.1153 17.7524 10.3341L17.1934 9.86546C16.9733 9.66588 16.6829 9.5577 16.3832 9.56364H5.05664C4.79672 9.56828 4.54257 9.63946 4.31938 9.77015C4.01404 9.94536 3.79026 10.2303 3.69552 10.5644L0.0982472 22.3596C0.0310335 22.554 0.0244215 22.7636 0.0792581 22.9617C0.134095 23.1597 0.247897 23.3373 0.406125 23.4717C0.447355 23.5059 0.490646 23.5378 0.53576 23.5669C0.53576 23.5669 0.46283 23.5193 0.42232 23.4796L5.33213 27.6337C5.53982 27.8212 5.81137 27.926 6.09366 27.9276H17.5094C17.7701 27.921 18.0244 27.847 18.2467 27.7131C18.3723 27.6458 18.4848 27.557 18.5788 27.451L18.6193 27.3954L18.6841 27.316L18.7327 27.2286L19.2675 27.6814C19.4722 27.8614 19.7379 27.9604 20.0129 27.9594H31.4528C31.7133 27.9509 31.9671 27.8771 32.1901 27.7449C32.313 27.6735 32.4248 27.5852 32.5223 27.4828L32.5628 27.4272L32.6276 27.3478C32.6621 27.2975 32.6919 27.2444 32.7167 27.1889C32.7432 27.1408 32.7649 27.0902 32.7815 27.038L36.0628 16.2675V16.1721C36.0669 16.1352 36.0669 16.0979 36.0628 16.0609V15.9895C36.0668 15.9658 36.0668 15.9416 36.0628 15.9179C36.0665 15.8677 36.0665 15.8173 36.0628 15.767H37.1161C37.2077 15.7753 37.2999 15.7753 37.3915 15.767H37.4645C37.5238 15.7497 37.5809 15.7257 37.6346 15.6955H37.7157L37.8615 15.5843L37.9263 15.5367L38.0397 15.3937V15.3461L38.1207 15.211C38.1162 15.1848 38.1162 15.1579 38.1207 15.1316C38.1164 15.1187 38.1164 15.1048 38.1207 15.0919C38.138 15.0453 38.1515 14.9975 38.1613 14.9489C38.1575 14.9332 38.1575 14.9169 38.1613 14.9012C38.1573 14.8776 38.1573 14.8534 38.1613 14.8298C38.1613 14.8298 38.3233 14.52 38.3233 14.5041Z" fill="black"/>
<path d="M16.7154 10.4692C16.7584 10.5073 16.7884 10.5575 16.8015 10.6128C16.8145 10.6682 16.8099 10.7262 16.7883 10.779L13.1992 22.5662C13.154 22.6949 13.0615 22.8025 12.9399 22.8681C12.8409 22.933 12.7264 22.9713 12.6077 22.9793H1.20015C1.10273 22.9747 1.01043 22.9351 0.940885 22.8681C0.899512 22.8305 0.870474 22.7818 0.857484 22.7281C0.844495 22.6743 0.848153 22.618 0.86797 22.5662L4.46524 10.779C4.50669 10.6486 4.59625 10.5382 4.7164 10.4692C4.81698 10.409 4.93097 10.3735 5.04858 10.3659H16.4561C16.5528 10.3668 16.6455 10.4038 16.7154 10.4692ZM10.7604 20.1913L12.9075 13.1539H6.89584L4.7569 20.1913H10.7604ZM27.6044 10.5883C27.6433 10.6327 27.692 10.6678 27.7467 10.6912C27.8014 10.7146 27.8608 10.7256 27.9204 10.7234H29.4031C29.4595 10.7239 29.5151 10.7103 29.5648 10.6839C29.6144 10.6575 29.6563 10.6191 29.6866 10.5724C29.7129 10.536 29.7316 10.4947 29.7413 10.451C29.751 10.4073 29.7517 10.3622 29.7433 10.3183L29.4517 8.22135C29.4239 8.1243 29.374 8.03468 29.3059 7.95923C29.2669 7.91489 29.2183 7.87972 29.1636 7.85634C29.1089 7.83297 29.0495 7.82198 28.9899 7.8242H27.5072C27.4507 7.82366 27.3951 7.83724 27.3455 7.86364C27.2959 7.89005 27.2539 7.92841 27.2236 7.97512C27.1669 8.08632 27.1426 8.1578 27.1669 8.22135L27.4667 10.3183C27.4821 10.4204 27.5303 10.515 27.6044 10.5883ZM32.3117 8.20546C32.2839 8.10841 32.234 8.01879 32.1658 7.94334C32.1286 7.89916 32.0813 7.86401 32.028 7.84059C31.9746 7.81718 31.9164 7.80613 31.858 7.80832H30.3672C30.3117 7.80677 30.2567 7.81997 30.2082 7.84654C30.1598 7.87311 30.1195 7.91205 30.0917 7.95923C30.0378 8.0297 30.0145 8.11821 30.0269 8.20546L30.3267 10.3024C30.3455 10.4034 30.3932 10.4971 30.4644 10.5724C30.504 10.6159 30.5528 10.6505 30.6074 10.6738C30.6619 10.6971 30.7209 10.7086 30.7804 10.7075H32.2712C32.3266 10.7082 32.3811 10.6946 32.4295 10.6681C32.4778 10.6416 32.5182 10.6032 32.5466 10.5566C32.5748 10.521 32.5945 10.4797 32.6043 10.4358C32.6142 10.3918 32.6138 10.3462 32.6033 10.3024L32.3117 8.20546ZM26.3 11.3826L26.1541 10.35H18.9677C18.8549 10.3561 18.7457 10.3918 18.6517 10.4533C18.5921 10.4852 18.5401 10.5294 18.4996 10.5829C18.459 10.6364 18.4308 10.6978 18.4168 10.7631L17.8173 12.7329C17.7933 12.7821 17.7851 12.8374 17.7938 12.8912C17.8025 12.9451 17.8276 12.9951 17.8659 13.0347C17.9342 13.0977 18.0234 13.1344 18.117 13.138H26.851L24.7039 20.1754H15.9943C15.882 20.1779 15.7726 20.2109 15.6784 20.2707C15.5638 20.3421 15.4801 20.4524 15.4434 20.5805L14.8357 22.5503C14.8159 22.6009 14.8107 22.6558 14.8207 22.7091C14.8307 22.7624 14.8555 22.8118 14.8924 22.8521C14.9586 22.9193 15.0485 22.9591 15.1436 22.9633H26.5836C26.7019 22.9534 26.8159 22.9152 26.9157 22.8521C27.0354 22.7863 27.1251 22.6785 27.1669 22.5503L30.4563 11.7798H26.7537C26.695 11.7809 26.6366 11.7702 26.5823 11.7483C26.5279 11.7265 26.4788 11.6939 26.4378 11.6527C26.3708 11.5806 26.3234 11.4932 26.3 11.3985V11.3826Z" fill="white"/>
</g>
<defs>
<clipPath id="clip0_211_2517">
<rect width="38.2838" height="20.8821" fill="white" transform="translate(0.0424805 7.0773)"/>
</clipPath>
</defs>
</svg>
