<svg width="35" height="35" viewBox="0 0 35 35" fill="none" xmlns="http://www.w3.org/2000/svg">
<rect x="0.942871" y="0.919342" width="33.4113" height="33.4113" rx="5.56856" fill="#F5F7FA"/>
<g clip-path="url(#clip0_211_2537)">
<path d="M27.6981 9.05676C27.6981 9.38112 27.9643 9.64407 28.2927 9.64407H28.8872C29.2156 9.64407 29.4818 9.38112 29.4818 9.05676C29.4818 8.7324 29.2156 8.46945 28.8872 8.46945H28.2927C27.9643 8.46945 27.6981 8.7324 27.6981 9.05676Z" fill="#212326"/>
<path d="M10.4558 27.2633H13.3441L12.5032 26.4327C12.2803 26.2125 11.9778 26.0887 11.6624 26.0887H10.4558C5.85869 26.0887 2.13199 22.4075 2.13199 17.8664C2.13199 13.3253 5.85869 9.64407 10.4558 9.64407H19.9688C24.5659 9.64407 28.2926 13.3253 28.2926 17.8664C28.2926 22.4075 24.5659 26.0887 19.9688 26.0887H16.4102C15.9371 26.0887 15.4834 25.9031 15.1489 25.5727L14.1638 24.5996C13.6063 24.0489 12.8501 23.7395 12.0617 23.7395H10.4558C7.17214 23.7395 4.51023 21.11 4.51023 17.8664C4.51023 14.6228 7.17214 11.9933 10.4558 11.9933H19.9688C23.2525 11.9933 25.9144 14.6228 25.9144 17.8664C25.9144 21.11 23.2525 23.7395 19.9688 23.7395H17.6838C17.2107 23.7395 16.7571 23.5538 16.4225 23.2234L15.4374 22.2503C14.8799 21.6996 14.1238 21.3902 13.3353 21.3902H10.4558C8.48564 21.3902 6.88846 19.8125 6.88846 17.8664C6.88846 15.9202 8.48564 14.3425 10.4558 14.3425H19.9688C21.9389 14.3425 23.5361 15.9202 23.5361 17.8664C23.5361 19.7888 21.9777 21.3517 20.0407 21.3895L20.0403 21.3902H19.1702C18.6971 21.3902 18.2435 21.2046 17.9089 20.8742L16.9238 19.9011C16.4664 19.4492 15.8752 19.1598 15.2422 19.0705L15.2123 19.041H10.4558C9.79909 19.041 9.2667 18.5151 9.2667 17.8664C9.2667 17.2177 9.79909 16.6918 10.4558 16.6918H19.9688C20.6255 16.6918 21.1579 17.2177 21.1579 17.8664C21.1579 18.5151 20.6255 19.041 19.9688 19.041H17.5905L18.4314 19.8716C18.6544 20.0919 18.9568 20.2156 19.2722 20.2156H19.9688C21.2822 20.2156 22.347 19.1638 22.347 17.8664C22.347 16.569 21.2822 15.5172 19.9688 15.5172H10.4558C9.14237 15.5172 8.07758 16.569 8.07758 17.8664C8.07758 19.1638 9.14237 20.2156 10.4558 20.2156H14.8217C15.2948 20.2156 15.7485 20.4013 16.083 20.7317L17.0681 21.7048C17.6256 22.2555 18.3818 22.5649 19.1702 22.5649H20.2661V22.5558C22.7545 22.4043 24.7252 20.3626 24.7252 17.8664C24.7252 15.2715 22.5957 13.1679 19.9688 13.1679H10.4558C7.82891 13.1679 5.69935 15.2715 5.69935 17.8664C5.69935 20.4613 7.82891 22.5649 10.4558 22.5649H13.3353C13.8084 22.5649 14.2621 22.7505 14.5966 23.0809L15.5817 24.054C16.1392 24.6047 16.8954 24.9141 17.6838 24.9141H19.9688C23.9092 24.9141 27.1035 21.7587 27.1035 17.8664C27.1035 13.974 23.9092 10.8187 19.9688 10.8187H10.4558C6.51541 10.8187 3.32111 13.974 3.32111 17.8664C3.32111 21.7587 6.51541 24.9141 10.4558 24.9141H12.0617C12.5348 24.9141 12.9885 25.0997 13.323 25.4301L14.3081 26.4032C14.8656 26.9539 15.6217 27.2633 16.4102 27.2633H19.9688C25.2226 27.2633 29.4817 23.0562 29.4817 17.8664C29.4817 12.6766 25.2226 8.46945 19.9688 8.46945L10.4558 8.46945C5.20196 8.46945 0.942871 12.6766 0.942871 17.8664C0.942872 23.0562 5.20197 27.2633 10.4558 27.2633Z" fill="#212326"/>
</g>
<defs>
<clipPath id="clip0_211_2537">
<rect width="28.5388" height="18.7939" fill="white" transform="translate(0.942871 8.46945)"/>
</clipPath>
</defs>
</svg>
